<mxfile host="app.diagrams.net" agent="Mozilla/5.0 (Windows NT 10.0; Win64; x64) AppleWebKit/537.36 (KHTML, like Gecko) Chrome/128.0.0.0 Safari/537.36" version="24.7.7">
  <diagram id="C5RBs43oDa-KdzZeNtuy" name="Page-1">
    <mxGraphModel dx="880" dy="506" grid="1" gridSize="10" guides="1" tooltips="1" connect="1" arrows="1" fold="1" page="1" pageScale="1" pageWidth="827" pageHeight="1169" math="0" shadow="0">
      <root>
        <mxCell id="WIyWlLk6GJQsqaUBKTNV-0" />
        <mxCell id="WIyWlLk6GJQsqaUBKTNV-1" parent="WIyWlLk6GJQsqaUBKTNV-0" />
        <mxCell id="zkfFHV4jXpPFQw0GAbJ--0" value="Disciplina" style="swimlane;fontStyle=2;align=center;verticalAlign=top;childLayout=stackLayout;horizontal=1;startSize=26;horizontalStack=0;resizeParent=1;resizeLast=0;collapsible=1;marginBottom=0;rounded=0;shadow=0;strokeWidth=1;" parent="WIyWlLk6GJQsqaUBKTNV-1" vertex="1">
          <mxGeometry x="260" y="70" width="386" height="480" as="geometry">
            <mxRectangle x="230" y="140" width="160" height="26" as="alternateBounds" />
          </mxGeometry>
        </mxCell>
        <mxCell id="zkfFHV4jXpPFQw0GAbJ--1" value="private String nome;&#xa;private String unidadeEscolar;&#xa;private String anoEscolar;&#xa;private String ementa;&#xa;private String objetivos;&#xa;private String metodologia;&#xa;private String calculoMedia;&#xa;private int cargaHoraria;&#xa;private ArrayList&lt;Notas&gt; notas;&#xa;private ArrayList&lt;Turma&gt; turmas;&#xa;private ArrayList&lt;Professor&gt; professores;&#xa;private ArrayList&lt;Prova&gt; provas;&#xa;private ArrayList&lt;Trabalho&gt; trabalhos;&#xa;private ArrayList&lt;PontoExtra&gt; pontosExtra;" style="text;align=left;verticalAlign=top;spacingLeft=4;spacingRight=4;overflow=hidden;rotatable=0;points=[[0,0.5],[1,0.5]];portConstraint=eastwest;" parent="zkfFHV4jXpPFQw0GAbJ--0" vertex="1">
          <mxGeometry y="26" width="386" height="204" as="geometry" />
        </mxCell>
        <mxCell id="zkfFHV4jXpPFQw0GAbJ--4" value="" style="line;html=1;strokeWidth=1;align=left;verticalAlign=middle;spacingTop=-1;spacingLeft=3;spacingRight=3;rotatable=0;labelPosition=right;points=[];portConstraint=eastwest;" parent="zkfFHV4jXpPFQw0GAbJ--0" vertex="1">
          <mxGeometry y="230" width="386" height="8" as="geometry" />
        </mxCell>
        <mxCell id="zkfFHV4jXpPFQw0GAbJ--5" value="public Disciplina(String nome, String unidadeEscolar, String anoEscolar)&#xa;public void exibirPlanoDeEnsino()&#xa;public void adicionarNota(Aluno aluno)&#xa;public void removerNota(Aluno aluno)&#xa;public void adicionarTurma(Turma turma)&#xa;public void removerTurma(Turma turma)&#xa;public double mediaTurma(Turma turma)&#xa;public double mediaGeral()&#xa;public void adicionarProfessor(Professor professor)&#xa;public void removerProfessor(Professor professor)&#xa;public void adicionarProva(Prova prova)&#xa;public void removerProva(Prova prova)&#xa;public void adicionarTrabalho(Trabalho trabalho)&#xa;public void removerTrabalho(Trabalho trabalho)&#xa;public void adicionarPontoExtra(PontoExtra pontoExtra)&#xa;public void removerPontoExtra(PontoExtra pontoExtra)" style="text;align=left;verticalAlign=top;spacingLeft=4;spacingRight=4;overflow=hidden;rotatable=0;points=[[0,0.5],[1,0.5]];portConstraint=eastwest;" parent="zkfFHV4jXpPFQw0GAbJ--0" vertex="1">
          <mxGeometry y="238" width="386" height="242" as="geometry" />
        </mxCell>
      </root>
    </mxGraphModel>
  </diagram>
</mxfile>
